<svg xmlns="http://www.w3.org/2000/svg" width="272" height="267" fill="none" viewBox="0 0 272 267" class="Benefits_momentum__42Pqx"><g stroke-width="0.5" filter="url(#filter0_d_3072_54198)"><path fill="#08090A" stroke="#62666D" d="M137.045 107.67a1.44 1.44 0 0 1 1.288 0l115.686 57.842a3.13 3.13 0 0 1 1.73 2.8v20.529a1.44 1.44 0 0 1-.796 1.288l-1.69.844a1.44 1.44 0 0 1-1.288 0l-115.686-57.842a3.13 3.13 0 0 1-1.73-2.8v-20.529c0-.545.308-1.044.795-1.288z"></path><path stroke="#2E2E32" stroke-linecap="round" d="m137.689 110.448 113.061 56.531a3.38 3.38 0 0 1 1.869 3.023v18.193"></path></g><g stroke-width="0.5" filter="url(#filter1_d_3072_54198)"><path fill="#08090A" stroke="#62666D" d="M128.596 98.374a1.44 1.44 0 0 1 1.288 0l115.685 57.843a3.13 3.13 0 0 1 1.731 2.8v34.049c0 .546-.308 1.045-.796 1.288l-1.691.845a1.44 1.44 0 0 1-1.288 0L127.84 137.356a3.13 3.13 0 0 1-1.731-2.799v-34.05c0-.546.308-1.044.796-1.288z"></path><path stroke="#2E2E32" stroke-linecap="round" d="m129.239 101.153 113.061 56.53a3.38 3.38 0 0 1 1.869 3.024v31.713"></path></g><g stroke-width="0.5" filter="url(#filter2_d_3072_54198)"><path fill="#08090A" stroke="#62666D" d="M120.145 82.318a1.44 1.44 0 0 1 1.288 0l115.685 57.842a3.13 3.13 0 0 1 1.731 2.8v54.331c0 .546-.309 1.044-.796 1.288l-1.691.845a1.44 1.44 0 0 1-1.288 0l-115.685-57.843a3.13 3.13 0 0 1-1.731-2.8v-54.33l.015-.202c.065-.464.354-.873.781-1.087z"></path><path stroke="#2E2E32" stroke-linecap="round" d="m120.789 85.096 113.061 56.531a3.38 3.38 0 0 1 1.869 3.023v51.996"></path></g><g stroke-width="0.5" filter="url(#filter3_d_3072_54198)"><path fill="#08090A" stroke="#62666D" d="M111.695 59.5a1.44 1.44 0 0 1 1.288 0l115.686 57.844a3.13 3.13 0 0 1 1.73 2.799v81.373a1.44 1.44 0 0 1-.795 1.288l-1.691.846a1.44 1.44 0 0 1-1.288 0l-115.686-57.843a3.13 3.13 0 0 1-1.73-2.799V61.633c0-.545.308-1.044.796-1.288z"></path><path stroke="#2E2E32" stroke-linecap="round" d="M112.339 62.28 225.4 118.81a3.38 3.38 0 0 1 1.868 3.023v79.038"></path></g><g filter="url(#filter4_d_3072_54198)"><path fill="#08090A" stroke="#D0D6E0" stroke-width="0.5" d="M103.242 16.402a1.44 1.44 0 0 1 1.288 0l115.686 57.843a3.13 3.13 0 0 1 1.73 2.8v128.697a1.44 1.44 0 0 1-.796 1.288l-1.69.845a1.45 1.45 0 0 1-1.288 0l-115.686-57.843a3.13 3.13 0 0 1-1.73-2.8V18.535c0-.545.308-1.044.796-1.288z"></path><path stroke="#2E2E32" stroke-linecap="round" stroke-width="0.5" d="m103.887 19.18 113.061 56.531a3.38 3.38 0 0 1 1.868 3.024v126.361"></path><path stroke="#3E3E44" stroke-linecap="round" d="m111.914 36.505 32.958 16.901M111.914 44.956l16.056 8.45"></path></g><g stroke-width="0.5" filter="url(#filter5_d_3072_54198)"><path fill="#08090A" stroke="#62666D" d="M94.793 67.951a1.44 1.44 0 0 1 1.288 0l115.686 57.843a3.13 3.13 0 0 1 1.73 2.8v81.373a1.44 1.44 0 0 1-.796 1.288l-1.69.846a1.45 1.45 0 0 1-1.288 0L94.037 154.258a3.13 3.13 0 0 1-1.73-2.8V70.084c0-.545.308-1.044.796-1.288z"></path><path stroke="#2E2E32" stroke-linecap="round" d="m95.437 70.73 113.061 56.531a3.38 3.38 0 0 1 1.868 3.023v79.038"></path></g><g stroke-width="0.5" filter="url(#filter6_d_3072_54198)"><path fill="#08090A" stroke="#62666D" d="M86.342 99.219a1.44 1.44 0 0 1 1.288 0l115.685 57.843a3.13 3.13 0 0 1 1.731 2.8v54.331a1.44 1.44 0 0 1-.796 1.288l-1.69.844a1.44 1.44 0 0 1-1.289 0L85.586 158.483a3.13 3.13 0 0 1-1.73-2.8v-54.331l.014-.201c.066-.465.354-.874.781-1.087z"></path><path stroke="#2E2E32" stroke-linecap="round" d="m86.986 101.998 113.061 56.53a3.38 3.38 0 0 1 1.869 3.024v51.995"></path></g><g stroke-width="0.5" filter="url(#filter7_d_3072_54198)"><path fill="#08090A" stroke="#62666D" d="M77.893 123.726a1.44 1.44 0 0 1 1.288 0l115.685 57.843a3.13 3.13 0 0 1 1.731 2.8v34.049a1.44 1.44 0 0 1-.796 1.289l-1.691.844a1.44 1.44 0 0 1-1.288 0L77.137 162.708a3.13 3.13 0 0 1-1.73-2.799v-34.05c0-.545.307-1.044.795-1.288z"></path><path stroke="#2E2E32" stroke-linecap="round" d="m78.536 126.505 113.061 56.53a3.38 3.38 0 0 1 1.869 3.024v31.713"></path></g><g stroke-width="0.5" filter="url(#filter8_d_3072_54198)"><path fill="#08090A" stroke="#62666D" d="M69.44 141.473a1.44 1.44 0 0 1 1.288 0l115.685 57.842a3.13 3.13 0 0 1 1.731 2.8v20.529c0 .545-.309 1.044-.796 1.288l-1.691.844a1.44 1.44 0 0 1-1.288 0L68.684 166.934a3.13 3.13 0 0 1-1.73-2.8v-20.529c0-.545.307-1.044.795-1.288z"></path><path stroke="#2E2E32" stroke-linecap="round" d="m70.084 144.251 113.061 56.531a3.38 3.38 0 0 1 1.869 3.023v18.193"></path></g><g stroke-width="0.5" filter="url(#filter9_d_3072_54198)"><path fill="#08090A" stroke="#62666D" d="M60.99 152.458a1.45 1.45 0 0 1 1.288 0l115.686 57.843a3.13 3.13 0 0 1 1.73 2.8v13.768a1.44 1.44 0 0 1-.796 1.288l-1.69.844a1.44 1.44 0 0 1-1.288 0L60.234 171.159a3.13 3.13 0 0 1-1.73-2.8v-13.768c0-.545.308-1.044.796-1.288z"></path><path stroke="#2E2E32" stroke-linecap="round" d="m61.634 155.237 113.061 56.531a3.38 3.38 0 0 1 1.868 3.023v11.432"></path></g><g stroke-width="0.5" filter="url(#filter10_d_3072_54198)"><path fill="#08090A" stroke="#62666D" d="M52.54 160.064a1.45 1.45 0 0 1 1.287 0l115.686 57.843a3.13 3.13 0 0 1 1.73 2.8v10.387a1.44 1.44 0 0 1-.796 1.289l-1.69.844a1.44 1.44 0 0 1-1.288 0L51.783 175.385a3.13 3.13 0 0 1-1.73-2.8v-10.388c0-.545.308-1.044.796-1.288z"></path><path stroke="#2E2E32" stroke-linecap="round" d="m53.183 162.843 113.061 56.53a3.38 3.38 0 0 1 1.868 3.024v8.051"></path></g><g stroke-width="0.5" filter="url(#filter11_d_3072_54198)"><path fill="#08090A" stroke="#62666D" d="M44.09 165.98a1.44 1.44 0 0 1 1.288 0l115.685 57.843a3.13 3.13 0 0 1 1.731 2.799v8.698a1.44 1.44 0 0 1-.796 1.288l-1.69.844a1.44 1.44 0 0 1-1.288 0L43.334 179.61a3.13 3.13 0 0 1-1.73-2.8v-8.697c0-.546.308-1.045.795-1.289z"></path><path stroke="#2E2E32" stroke-linecap="round" d="m44.733 168.758 113.061 56.531a3.38 3.38 0 0 1 1.869 3.023v6.362"></path></g><g stroke-width="0.5" filter="url(#filter12_d_3072_54198)"><path fill="#08090A" stroke="#62666D" d="M35.637 171.05a1.44 1.44 0 0 1 1.288 0l115.685 57.843a3.13 3.13 0 0 1 1.731 2.8v7.852a1.44 1.44 0 0 1-.796 1.288l-1.691.845a1.44 1.44 0 0 1-1.288 0L34.881 183.835a3.13 3.13 0 0 1-1.73-2.8v-7.852c0-.545.307-1.044.795-1.288z"></path><path stroke="#2E2E32" stroke-linecap="round" d="m36.28 173.829 113.061 56.53a3.38 3.38 0 0 1 1.869 3.024v5.516"></path></g><g stroke-width="0.5" filter="url(#filter13_d_3072_54198)"><path fill="#08090A" stroke="#62666D" d="M27.188 175.275a1.45 1.45 0 0 1 1.288 0l115.685 57.843a3.13 3.13 0 0 1 1.731 2.8v7.853a1.44 1.44 0 0 1-.796 1.288l-1.691.844a1.44 1.44 0 0 1-1.288 0L26.432 188.061a3.13 3.13 0 0 1-1.73-2.8v-7.853c0-.545.307-1.044.795-1.288z"></path><path stroke="#2E2E32" stroke-linecap="round" d="m27.831 178.054 113.061 56.531a3.38 3.38 0 0 1 1.869 3.023v5.517"></path></g><g stroke-width="0.5" filter="url(#filter14_d_3072_54198)"><path fill="#08090A" stroke="#62666D" d="M18.736 179.501a1.44 1.44 0 0 1 1.288 0l115.686 57.843a3.13 3.13 0 0 1 1.73 2.799v7.853c0 .545-.308 1.044-.795 1.288l-1.691.845a1.45 1.45 0 0 1-1.288 0L17.981 192.286a3.13 3.13 0 0 1-1.731-2.8v-7.852c0-.546.308-1.045.796-1.289z"></path><path stroke="#2E2E32" stroke-linecap="round" d="m19.38 182.28 113.061 56.53a3.38 3.38 0 0 1 1.868 3.023v5.517"></path></g><defs><filter id="filter0_d_3072_54198" width="153.691" height="116.507" x="118.309" y="91.068" color-interpolation-filters="sRGB" filterUnits="userSpaceOnUse"><feFlood flood-opacity="0" result="BackgroundImageFix"></feFlood><feColorMatrix in="SourceAlpha" result="hardAlpha" values="0 0 0 0 0 0 0 0 0 0 0 0 0 0 0 0 0 0 127 0"></feColorMatrix><feOffset></feOffset><feGaussianBlur stdDeviation="8"></feGaussianBlur><feComposite in2="hardAlpha" operator="out"></feComposite><feColorMatrix values="0 0 0 0 0.0313726 0 0 0 0 0.0352941 0 0 0 0 0.0392157 0 0 0 1 0"></feColorMatrix><feBlend in2="BackgroundImageFix" result="effect1_dropShadow_3072_54198"></feBlend><feBlend in="SourceGraphic" in2="effect1_dropShadow_3072_54198" result="shape"></feBlend></filter><filter id="filter1_d_3072_54198" width="153.69" height="130.028" x="109.859" y="81.772" color-interpolation-filters="sRGB" filterUnits="userSpaceOnUse"><feFlood flood-opacity="0" result="BackgroundImageFix"></feFlood><feColorMatrix in="SourceAlpha" result="hardAlpha" values="0 0 0 0 0 0 0 0 0 0 0 0 0 0 0 0 0 0 127 0"></feColorMatrix><feOffset></feOffset><feGaussianBlur stdDeviation="8"></feGaussianBlur><feComposite in2="hardAlpha" operator="out"></feComposite><feColorMatrix values="0 0 0 0 0.0313726 0 0 0 0 0.0352941 0 0 0 0 0.0392157 0 0 0 1 0"></feColorMatrix><feBlend in2="BackgroundImageFix" result="effect1_dropShadow_3072_54198"></feBlend><feBlend in="SourceGraphic" in2="effect1_dropShadow_3072_54198" result="shape"></feBlend></filter><filter id="filter2_d_3072_54198" width="153.69" height="150.31" x="101.408" y="65.716" color-interpolation-filters="sRGB" filterUnits="userSpaceOnUse"><feFlood flood-opacity="0" result="BackgroundImageFix"></feFlood><feColorMatrix in="SourceAlpha" result="hardAlpha" values="0 0 0 0 0 0 0 0 0 0 0 0 0 0 0 0 0 0 127 0"></feColorMatrix><feOffset></feOffset><feGaussianBlur stdDeviation="8"></feGaussianBlur><feComposite in2="hardAlpha" operator="out"></feComposite><feColorMatrix values="0 0 0 0 0.0313726 0 0 0 0 0.0352941 0 0 0 0 0.0392157 0 0 0 1 0"></feColorMatrix><feBlend in2="BackgroundImageFix" result="effect1_dropShadow_3072_54198"></feBlend><feBlend in="SourceGraphic" in2="effect1_dropShadow_3072_54198" result="shape"></feBlend></filter><filter id="filter3_d_3072_54198" width="153.691" height="177.153" x="92.958" y="43.099" color-interpolation-filters="sRGB" filterUnits="userSpaceOnUse"><feFlood flood-opacity="0" result="BackgroundImageFix"></feFlood><feColorMatrix in="SourceAlpha" result="hardAlpha" values="0 0 0 0 0 0 0 0 0 0 0 0 0 0 0 0 0 0 127 0"></feColorMatrix><feOffset></feOffset><feGaussianBlur stdDeviation="8"></feGaussianBlur><feComposite in2="hardAlpha" operator="out"></feComposite><feColorMatrix values="0 0 0 0 0.0313726 0 0 0 0 0.0352941 0 0 0 0 0.0392157 0 0 0 1 0"></feColorMatrix><feBlend in2="BackgroundImageFix" result="effect1_dropShadow_3072_54198"></feBlend><feBlend in="SourceGraphic" in2="effect1_dropShadow_3072_54198" result="shape"></feBlend></filter><filter id="filter4_d_3072_54198" width="153.691" height="224.676" x="84.506" y="-0.199" color-interpolation-filters="sRGB" filterUnits="userSpaceOnUse"><feFlood flood-opacity="0" result="BackgroundImageFix"></feFlood><feColorMatrix in="SourceAlpha" result="hardAlpha" values="0 0 0 0 0 0 0 0 0 0 0 0 0 0 0 0 0 0 127 0"></feColorMatrix><feOffset></feOffset><feGaussianBlur stdDeviation="8"></feGaussianBlur><feComposite in2="hardAlpha" operator="out"></feComposite><feColorMatrix values="0 0 0 0 0.0313726 0 0 0 0 0.0352941 0 0 0 0 0.0392157 0 0 0 1 0"></feColorMatrix><feBlend in2="BackgroundImageFix" result="effect1_dropShadow_3072_54198"></feBlend><feBlend in="SourceGraphic" in2="effect1_dropShadow_3072_54198" result="shape"></feBlend></filter><filter id="filter5_d_3072_54198" width="153.69" height="177.153" x="76.057" y="51.549" color-interpolation-filters="sRGB" filterUnits="userSpaceOnUse"><feFlood flood-opacity="0" result="BackgroundImageFix"></feFlood><feColorMatrix in="SourceAlpha" result="hardAlpha" values="0 0 0 0 0 0 0 0 0 0 0 0 0 0 0 0 0 0 127 0"></feColorMatrix><feOffset></feOffset><feGaussianBlur stdDeviation="8"></feGaussianBlur><feComposite in2="hardAlpha" operator="out"></feComposite><feColorMatrix values="0 0 0 0 0.0313726 0 0 0 0 0.0352941 0 0 0 0 0.0392157 0 0 0 1 0"></feColorMatrix><feBlend in2="BackgroundImageFix" result="effect1_dropShadow_3072_54198"></feBlend><feBlend in="SourceGraphic" in2="effect1_dropShadow_3072_54198" result="shape"></feBlend></filter><filter id="filter6_d_3072_54198" width="153.69" height="150.31" x="67.606" y="82.617" color-interpolation-filters="sRGB" filterUnits="userSpaceOnUse"><feFlood flood-opacity="0" result="BackgroundImageFix"></feFlood><feColorMatrix in="SourceAlpha" result="hardAlpha" values="0 0 0 0 0 0 0 0 0 0 0 0 0 0 0 0 0 0 127 0"></feColorMatrix><feOffset></feOffset><feGaussianBlur stdDeviation="8"></feGaussianBlur><feComposite in2="hardAlpha" operator="out"></feComposite><feColorMatrix values="0 0 0 0 0.0313726 0 0 0 0 0.0352941 0 0 0 0 0.0392157 0 0 0 1 0"></feColorMatrix><feBlend in2="BackgroundImageFix" result="effect1_dropShadow_3072_54198"></feBlend><feBlend in="SourceGraphic" in2="effect1_dropShadow_3072_54198" result="shape"></feBlend></filter><filter id="filter7_d_3072_54198" width="153.691" height="130.028" x="59.155" y="107.125" color-interpolation-filters="sRGB" filterUnits="userSpaceOnUse"><feFlood flood-opacity="0" result="BackgroundImageFix"></feFlood><feColorMatrix in="SourceAlpha" result="hardAlpha" values="0 0 0 0 0 0 0 0 0 0 0 0 0 0 0 0 0 0 127 0"></feColorMatrix><feOffset></feOffset><feGaussianBlur stdDeviation="8"></feGaussianBlur><feComposite in2="hardAlpha" operator="out"></feComposite><feColorMatrix values="0 0 0 0 0.0313726 0 0 0 0 0.0352941 0 0 0 0 0.0392157 0 0 0 1 0"></feColorMatrix><feBlend in2="BackgroundImageFix" result="effect1_dropShadow_3072_54198"></feBlend><feBlend in="SourceGraphic" in2="effect1_dropShadow_3072_54198" result="shape"></feBlend></filter><filter id="filter8_d_3072_54198" width="153.691" height="116.507" x="50.703" y="124.871" color-interpolation-filters="sRGB" filterUnits="userSpaceOnUse"><feFlood flood-opacity="0" result="BackgroundImageFix"></feFlood><feColorMatrix in="SourceAlpha" result="hardAlpha" values="0 0 0 0 0 0 0 0 0 0 0 0 0 0 0 0 0 0 127 0"></feColorMatrix><feOffset></feOffset><feGaussianBlur stdDeviation="8"></feGaussianBlur><feComposite in2="hardAlpha" operator="out"></feComposite><feColorMatrix values="0 0 0 0 0.0313726 0 0 0 0 0.0352941 0 0 0 0 0.0392157 0 0 0 1 0"></feColorMatrix><feBlend in2="BackgroundImageFix" result="effect1_dropShadow_3072_54198"></feBlend><feBlend in="SourceGraphic" in2="effect1_dropShadow_3072_54198" result="shape"></feBlend></filter><filter id="filter9_d_3072_54198" width="153.69" height="109.747" x="42.254" y="135.857" color-interpolation-filters="sRGB" filterUnits="userSpaceOnUse"><feFlood flood-opacity="0" result="BackgroundImageFix"></feFlood><feColorMatrix in="SourceAlpha" result="hardAlpha" values="0 0 0 0 0 0 0 0 0 0 0 0 0 0 0 0 0 0 127 0"></feColorMatrix><feOffset></feOffset><feGaussianBlur stdDeviation="8"></feGaussianBlur><feComposite in2="hardAlpha" operator="out"></feComposite><feColorMatrix values="0 0 0 0 0.0313726 0 0 0 0 0.0352941 0 0 0 0 0.0392157 0 0 0 1 0"></feColorMatrix><feBlend in2="BackgroundImageFix" result="effect1_dropShadow_3072_54198"></feBlend><feBlend in="SourceGraphic" in2="effect1_dropShadow_3072_54198" result="shape"></feBlend></filter><filter id="filter10_d_3072_54198" width="153.69" height="109.747" x="33.803" y="140.082" color-interpolation-filters="sRGB" filterUnits="userSpaceOnUse"><feFlood flood-opacity="0" result="BackgroundImageFix"></feFlood><feColorMatrix in="SourceAlpha" result="hardAlpha" values="0 0 0 0 0 0 0 0 0 0 0 0 0 0 0 0 0 0 127 0"></feColorMatrix><feOffset></feOffset><feGaussianBlur stdDeviation="8"></feGaussianBlur><feComposite in2="hardAlpha" operator="out"></feComposite><feColorMatrix values="0 0 0 0 0.0313726 0 0 0 0 0.0352941 0 0 0 0 0.0392157 0 0 0 1 0"></feColorMatrix><feBlend in2="BackgroundImageFix" result="effect1_dropShadow_3072_54198"></feBlend><feBlend in="SourceGraphic" in2="effect1_dropShadow_3072_54198" result="shape"></feBlend></filter><filter id="filter11_d_3072_54198" width="153.691" height="109.747" x="25.352" y="144.308" color-interpolation-filters="sRGB" filterUnits="userSpaceOnUse"><feFlood flood-opacity="0" result="BackgroundImageFix"></feFlood><feColorMatrix in="SourceAlpha" result="hardAlpha" values="0 0 0 0 0 0 0 0 0 0 0 0 0 0 0 0 0 0 127 0"></feColorMatrix><feOffset></feOffset><feGaussianBlur stdDeviation="8"></feGaussianBlur><feComposite in2="hardAlpha" operator="out"></feComposite><feColorMatrix values="0 0 0 0 0.0313726 0 0 0 0 0.0352941 0 0 0 0 0.0392157 0 0 0 1 0"></feColorMatrix><feBlend in2="BackgroundImageFix" result="effect1_dropShadow_3072_54198"></feBlend><feBlend in="SourceGraphic" in2="effect1_dropShadow_3072_54198" result="shape"></feBlend></filter><filter id="filter12_d_3072_54198" width="153.691" height="109.747" x="16.9" y="148.533" color-interpolation-filters="sRGB" filterUnits="userSpaceOnUse"><feFlood flood-opacity="0" result="BackgroundImageFix"></feFlood><feColorMatrix in="SourceAlpha" result="hardAlpha" values="0 0 0 0 0 0 0 0 0 0 0 0 0 0 0 0 0 0 127 0"></feColorMatrix><feOffset></feOffset><feGaussianBlur stdDeviation="8"></feGaussianBlur><feComposite in2="hardAlpha" operator="out"></feComposite><feColorMatrix values="0 0 0 0 0.0313726 0 0 0 0 0.0352941 0 0 0 0 0.0392157 0 0 0 1 0"></feColorMatrix><feBlend in2="BackgroundImageFix" result="effect1_dropShadow_3072_54198"></feBlend><feBlend in="SourceGraphic" in2="effect1_dropShadow_3072_54198" result="shape"></feBlend></filter><filter id="filter13_d_3072_54198" width="153.69" height="109.747" x="8.451" y="152.758" color-interpolation-filters="sRGB" filterUnits="userSpaceOnUse"><feFlood flood-opacity="0" result="BackgroundImageFix"></feFlood><feColorMatrix in="SourceAlpha" result="hardAlpha" values="0 0 0 0 0 0 0 0 0 0 0 0 0 0 0 0 0 0 127 0"></feColorMatrix><feOffset></feOffset><feGaussianBlur stdDeviation="8"></feGaussianBlur><feComposite in2="hardAlpha" operator="out"></feComposite><feColorMatrix values="0 0 0 0 0.0313726 0 0 0 0 0.0352941 0 0 0 0 0.0392157 0 0 0 1 0"></feColorMatrix><feBlend in2="BackgroundImageFix" result="effect1_dropShadow_3072_54198"></feBlend><feBlend in="SourceGraphic" in2="effect1_dropShadow_3072_54198" result="shape"></feBlend></filter><filter id="filter14_d_3072_54198" width="153.69" height="109.747" x="0" y="156.984" color-interpolation-filters="sRGB" filterUnits="userSpaceOnUse"><feFlood flood-opacity="0" result="BackgroundImageFix"></feFlood><feColorMatrix in="SourceAlpha" result="hardAlpha" values="0 0 0 0 0 0 0 0 0 0 0 0 0 0 0 0 0 0 127 0"></feColorMatrix><feOffset></feOffset><feGaussianBlur stdDeviation="8"></feGaussianBlur><feComposite in2="hardAlpha" operator="out"></feComposite><feColorMatrix values="0 0 0 0 0.0313726 0 0 0 0 0.0352941 0 0 0 0 0.0392157 0 0 0 1 0"></feColorMatrix><feBlend in2="BackgroundImageFix" result="effect1_dropShadow_3072_54198"></feBlend><feBlend in="SourceGraphic" in2="effect1_dropShadow_3072_54198" result="shape"></feBlend></filter></defs></svg>